<svg width="635" height="635" viewBox="0 0 635 635" fill="none" xmlns="http://www.w3.org/2000/svg">
<path d="M586.135 216.531H418.135V48.5307C418.135 19.4107 394.989 0 365.869 0H276.265C247.145 0 224 19.412 224 48.5307V216.531H56C26.88 216.531 0 239.676 0 268.796V358.395C0 387.515 26.88 410.66 56 410.66L224 410.665V578.665C224 607.785 247.145 634.665 276.265 634.665H365.864C394.984 634.665 418.129 607.785 418.129 578.665L418.135 410.665H586.135C615.255 410.665 634.665 387.52 634.665 358.4V268.796C634.665 239.676 615.253 216.531 586.135 216.531ZM149.335 370.344L53.7613 313.599L149.335 256.853V370.344ZM319.575 574.184L262.829 477.861H377.069L319.575 574.184ZM319.575 370.344C288.215 370.344 262.829 344.959 262.829 313.599C262.829 282.239 288.215 256.853 319.575 256.853C350.935 256.853 376.32 282.239 376.32 313.599C376.325 344.959 350.935 370.344 319.575 370.344ZM262.829 149.331L319.575 50.024L377.069 149.331H262.829ZM485.336 370.344V256.855L586.139 313.6L485.336 370.344Z" fill="black"/>
<path d="M483.5 374.5V256.5V253.5L593 312.5L483.5 374.5Z" fill="white" stroke="black"/>
<path d="M151.491 252L152.972 369.991L153.01 372.99L42.7781 315.369L151.491 252Z" fill="white" stroke="black"/>
<path d="M382.994 150.735L265 149.525L262 149.494L322.12 40.6049L382.994 150.735Z" fill="white" stroke="black"/>
<path d="M258 478L376 478L379 478L320 587.5L258 478Z" fill="white" stroke="black"/>
<ellipse cx="320.5" cy="317" rx="60.5" ry="62" fill="white"/>
</svg>
